# Blender v3.0.1 OBJ File: 'BlenderNatureAsset.blend'
# www.blender.org
mtllib Rock2.mtl
o Caillou3_Icosphere.002
v 1.973852 -0.094118 2.292107
v 2.239495 -0.091399 2.466834
v 1.906801 -0.059976 2.560884
v 1.678676 -0.108558 2.283416
v 1.881994 -0.094118 2.009391
v 2.214346 -0.094118 2.117380
v 1.993813 0.151840 2.568019
v 1.713753 0.182770 2.464964
v 1.756964 0.123327 2.157947
v 2.112840 0.140655 1.993010
v 2.238052 0.134057 2.292948
v 1.984077 0.243300 2.414379
v 1.919860 -0.094118 2.458282
v 2.116708 -0.093956 2.394808
v 2.060945 -0.093693 2.560617
v 2.281102 -0.091466 2.292107
v 2.115210 -0.094118 2.189406
v 1.794589 -0.094118 2.292107
v 1.780512 -0.036123 2.451261
v 1.919860 -0.094118 2.125932
v 1.749748 -0.111027 2.110237
v 2.061218 -0.094118 2.023229
v 2.326788 0.008596 2.395225
v 2.297705 0.007170 2.190064
v 1.945808 0.034636 2.602090
v 2.175624 0.020288 2.553735
v 1.713975 0.057260 2.395169
v 1.808327 0.089528 2.535923
v 1.798600 -0.011028 2.035782
v 1.673561 -0.030630 2.170080
v 2.169205 0.010624 2.023227
v 2.011594 -0.004454 1.957197
v 2.204388 0.173422 2.462144
v 1.810177 0.194856 2.540857
v 1.671752 0.178059 2.292340
v 2.009145 0.135488 2.008158
v 2.204679 0.182667 2.126652
v 1.969851 0.232981 2.521866
v 2.153774 0.265331 2.333005
v 1.807438 0.257290 2.426568
v 1.854005 0.255228 2.192662
v 2.054422 0.261694 2.108312
vn 0.0009 -1.0000 0.0003
vn 0.0181 -0.9998 0.0047
vn 0.0000 -1.0000 0.0000
vn 0.8032 -0.5641 0.1915
vn -0.0794 -0.3703 0.9255
vn -0.7897 -0.2183 0.5733
vn -0.5518 -0.3076 -0.7752
vn 0.4609 -0.4752 -0.7496
vn 0.7129 -0.1287 0.6894
vn -0.4828 -0.1747 0.8581
vn -0.9841 0.1227 0.1288
vn -0.3444 -0.0479 -0.9376
vn 0.7732 -0.2059 -0.5998
vn 0.3338 0.5386 0.7736
vn -0.4428 0.7824 0.4380
vn -0.5665 0.5727 -0.5925
vn -0.1418 0.6460 -0.7500
vn 0.8401 0.5424 -0.0100
vn -0.2043 -0.9363 0.2856
vn 0.0015 -1.0000 0.0021
vn 0.0166 -0.9998 0.0072
vn 0.0086 -0.9999 0.0119
vn 0.0156 -0.9999 0.0007
vn 0.0006 -1.0000 0.0008
vn 0.0902 -0.9331 0.3480
vn -0.3804 -0.8793 0.2868
vn -0.3829 -0.8900 0.2474
vn 0.1019 -0.9942 -0.0331
vn 0.0923 -0.9933 0.0696
vn 0.1187 -0.9909 0.0629
vn 0.8551 0.5032 -0.1247
vn 0.9461 -0.2959 -0.1321
vn 0.8312 -0.4612 -0.3106
vn 0.2135 0.1911 0.9581
vn 0.1957 -0.1382 0.9709
vn 0.4328 -0.3863 0.8145
vn -0.7505 -0.3222 0.5770
vn -0.7878 -0.2146 0.5773
vn -0.6551 -0.3170 0.6858
vn -0.7130 0.3378 -0.6145
vn -0.7101 -0.1631 -0.6849
vn -0.7950 -0.5160 -0.3189
vn 0.3897 -0.0448 -0.9199
vn 0.3866 -0.3986 -0.8317
vn 0.0633 -0.5688 -0.8200
vn 0.3717 0.4241 0.8258
vn 0.7084 0.2595 0.6564
vn 0.8071 0.5899 0.0233
vn -0.6163 -0.0260 0.7871
vn -0.4444 -0.0341 0.8952
vn -0.0692 0.3045 0.9500
vn -0.7231 0.3445 -0.5988
vn -0.9631 -0.1422 0.2284
vn -0.9621 -0.1339 0.2377
vn -0.1525 0.3358 -0.9295
vn -0.3369 0.3170 -0.8866
vn -0.4553 0.5176 -0.7244
vn 0.8893 0.4550 -0.0455
vn 0.7786 0.1975 -0.5956
vn 0.7776 0.1984 -0.5967
vn -0.0888 0.9925 0.0835
vn 0.3268 0.8258 0.4597
vn 0.8469 0.5299 0.0452
vn 0.0858 0.9906 0.1065
vn -0.1501 0.8661 0.4767
vn -0.0137 0.4913 0.8709
vn 0.0794 0.9968 0.0070
vn -0.4312 0.8974 -0.0938
vn -0.5871 0.8004 0.1210
vn -0.0077 0.9983 0.0582
vn -0.3104 0.6567 -0.6872
vn -0.4536 0.5235 -0.7212
vn -0.1127 0.9931 0.0338
vn 0.4749 0.8511 -0.2238
vn 0.4441 0.7210 -0.5319
usemtl Material.006
s off
f 1//1 14//1 13//1
f 2//2 14//2 16//2
f 1//3 13//3 18//3
f 1//3 18//3 20//3
f 1//3 20//3 17//3
f 2//4 16//4 23//4
f 3//5 15//5 25//5
f 4//6 19//6 27//6
f 5//7 21//7 29//7
f 6//8 22//8 31//8
f 2//9 23//9 26//9
f 3//10 25//10 28//10
f 4//11 27//11 30//11
f 5//12 29//12 32//12
f 6//13 31//13 24//13
f 7//14 33//14 38//14
f 8//15 34//15 40//15
f 9//16 35//16 41//16
f 10//17 36//17 42//17
f 11//18 37//18 39//18
f 13//19 15//19 3//19
f 13//20 14//20 15//20
f 14//21 2//21 15//21
f 16//22 17//22 6//22
f 16//23 14//23 17//23
f 14//24 1//24 17//24
f 18//25 19//25 4//25
f 18//26 13//26 19//26
f 13//27 3//27 19//27
f 20//28 21//28 5//28
f 20//29 18//29 21//29
f 18//30 4//30 21//30
f 17//3 22//3 6//3
f 17//3 20//3 22//3
f 20//3 5//3 22//3
f 23//31 24//31 11//31
f 23//32 16//32 24//32
f 16//33 6//33 24//33
f 25//34 26//34 7//34
f 25//35 15//35 26//35
f 15//36 2//36 26//36
f 27//37 28//37 8//37
f 27//38 19//38 28//38
f 19//39 3//39 28//39
f 29//40 30//40 9//40
f 29//41 21//41 30//41
f 21//42 4//42 30//42
f 31//43 32//43 10//43
f 31//44 22//44 32//44
f 22//45 5//45 32//45
f 26//46 33//46 7//46
f 26//47 23//47 33//47
f 23//48 11//48 33//48
f 28//49 34//49 8//49
f 28//50 25//50 34//50
f 25//51 7//51 34//51
f 30//52 35//52 9//52
f 30//53 27//53 35//53
f 27//54 8//54 35//54
f 32//55 36//55 10//55
f 32//56 29//56 36//56
f 29//57 9//57 36//57
f 24//58 37//58 11//58
f 24//59 31//59 37//59
f 31//60 10//60 37//60
f 38//61 39//61 12//61
f 38//62 33//62 39//62
f 33//63 11//63 39//63
f 40//64 38//64 12//64
f 40//65 34//65 38//65
f 34//66 7//66 38//66
f 41//67 40//67 12//67
f 41//68 35//68 40//68
f 35//69 8//69 40//69
f 42//70 41//70 12//70
f 42//71 36//71 41//71
f 36//72 9//72 41//72
f 39//73 42//73 12//73
f 39//74 37//74 42//74
f 37//75 10//75 42//75
