# Blender v3.0.1 OBJ File: 'BlenderNatureAsset.blend'
# www.blender.org
mtllib Tree1.mtl
o SapinHiver.015_Cylinder.034
v 0.767824 0.791130 -3.260491
v 0.638831 4.699447 -2.553808
v 1.260735 0.905771 -3.023825
v 0.646184 4.699762 -2.551092
v 1.539609 0.827138 -2.546163
v 0.649463 4.699943 -2.543967
v 1.298610 0.913925 -2.049673
v 0.646747 4.699883 -2.536608
v 0.825634 0.803575 -1.773571
v 0.639627 4.699618 -2.533324
v 0.325217 0.874896 -2.011501
v 0.632274 4.699303 -2.536041
v 0.053849 0.767566 -2.487899
v 0.628995 4.699122 -2.543165
v 0.287342 0.866743 -2.985654
v 0.631711 4.699182 -2.550524
v 0.746567 1.426936 -3.152464
v 0.725310 2.062743 -3.044438
v 0.704054 2.698550 -2.936411
v 0.682797 3.334357 -2.828384
v 0.661541 3.970163 -2.720358
v 0.779199 4.068440 -2.662982
v 0.875506 3.435906 -2.735151
v 0.971813 2.803372 -2.807319
v 1.068121 2.170839 -2.879488
v 1.164428 1.538305 -2.951657
v 0.850206 3.978965 -2.545738
v 0.988087 3.348600 -2.545823
v 1.125967 2.718235 -2.545908
v 1.263848 2.087869 -2.545993
v 1.401728 1.457504 -2.546078
v 0.788457 4.070433 -2.424847
v 0.890488 3.439131 -2.349813
v 0.992518 2.807830 -2.274778
v 1.094549 2.176528 -2.199743
v 1.196579 1.545226 -2.124708
v 0.675673 3.973205 -2.356876
v 0.705665 3.339279 -2.240215
v 0.735657 2.705353 -2.123554
v 0.765650 2.071427 -2.006893
v 0.795642 1.437500 -1.890232
v 0.550508 4.060893 -2.415516
v 0.505450 3.423693 -2.334713
v 0.460392 2.786494 -2.253910
v 0.415333 2.149294 -2.173107
v 0.370275 1.512095 -2.092304
v 0.487007 3.964403 -2.531495
v 0.400375 3.325036 -2.522776
v 0.313744 2.685668 -2.514057
v 0.227112 2.046301 -2.505337
v 0.140480 1.406933 -2.496618
v 0.541250 4.058899 -2.653651
v 0.490468 3.420468 -2.720051
v 0.439687 2.782037 -2.786452
v 0.388905 2.143606 -2.852852
v 0.338124 1.505174 -2.919253
v 0.659826 3.939515 -2.795425
v 0.827769 4.039985 -2.714024
v 0.926630 3.951963 -2.548484
v 0.840862 4.042803 -2.377262
v 0.679811 3.943817 -2.281400
v 0.504362 4.029311 -2.364066
v 0.413006 3.931369 -2.528342
v 0.491269 4.026493 -2.700828
v 0.679099 3.303281 -2.954467
v 0.956173 3.408511 -2.820925
v 1.115486 3.323642 -2.550568
v 0.977588 3.413120 -2.270114
v 0.711786 3.310318 -2.113724
v 0.427207 3.391053 -2.248531
v 0.275399 3.289958 -2.517623
v 0.405791 3.386443 -2.799342
v 0.698819 2.667144 -3.102021
v 1.077349 2.776798 -2.920004
v 1.292863 2.694860 -2.552201
v 1.106501 2.783073 -2.170198
v 0.743316 2.676723 -1.957536
v 0.357279 2.753033 -2.140817
v 0.149271 2.649007 -2.507355
v 0.328127 2.746758 -2.890624
v 0.718237 2.030941 -3.257320
v 1.203399 2.145246 -3.024357
v 1.477980 2.066388 -2.554139
v 1.240682 2.153271 -2.065406
v 0.775146 2.043192 -1.793602
v 0.282479 2.114852 -2.027830
v 0.015404 2.007746 -2.496784
v 0.245195 2.106826 -2.986781
v 0.737591 1.394725 -3.414299
v 1.330505 1.513728 -3.129854
v 1.664775 1.437984 -2.556142
v 1.376006 1.523523 -1.959556
v 0.807041 1.409676 -1.627988
v 0.206621 1.476636 -1.913699
v -0.120143 1.366417 -2.486146
v 0.161120 1.466841 -3.083996
v 1.448528 0.881911 -3.225520
v 1.837142 0.809001 -2.557579
v 1.501510 0.893317 -1.862795
v 0.838376 0.776038 -1.476814
v 0.139847 0.838720 -1.809398
v -0.241262 0.725667 -2.476074
v 0.086865 0.827315 -3.172122
v 0.757505 0.758630 -3.556840
v 0.832514 -0.305848 -2.732461
v 0.781584 0.955975 -2.741042
v 0.992558 -0.298986 -2.673346
v 0.941628 0.962837 -2.681927
v 1.063927 -0.295051 -2.518277
v 1.012997 0.966772 -2.526857
v 1.004815 -0.296348 -2.358090
v 0.953885 0.965476 -2.366671
v 0.849848 -0.302116 -2.286622
v 0.798918 0.959707 -2.295202
v 0.689804 -0.308978 -2.345737
v 0.638875 0.952845 -2.354318
v 0.618435 -0.312913 -2.500807
v 0.567505 0.948910 -2.509387
v 0.677547 -0.311617 -2.660993
v 0.626618 0.950207 -2.669574
vn 0.3462 0.0076 -0.9381
vn 0.9076 0.0338 -0.4186
vn 0.9373 0.0402 0.3462
vn 0.4180 0.0230 0.9082
vn -0.3462 -0.0076 0.9381
vn -0.9076 -0.0338 0.4186
vn -0.0403 0.9992 -0.0068
vn -0.4180 -0.0230 -0.9082
vn -0.9373 -0.0402 -0.3462
vn 0.0403 -0.9992 0.0068
vn 0.2675 0.2992 -0.9159
vn 0.8768 0.3276 -0.3520
vn 0.9013 0.3329 0.2774
vn 0.3376 0.3143 0.8873
vn -0.2913 0.2890 0.9119
vn -0.9005 0.2606 0.3480
vn -0.3614 0.2740 -0.8913
vn -0.9250 0.2554 -0.2814
vn -0.0403 0.9992 -0.0069
vn 0.2921 0.4866 -0.8233
vn 0.2936 0.4545 -0.8410
vn 0.2975 0.4058 -0.8642
vn 0.2960 0.3551 -0.8867
vn 0.2799 0.3096 -0.9087
vn 0.7733 0.5091 -0.3780
vn 0.7924 0.4777 -0.3793
vn 0.8176 0.4301 -0.3827
vn 0.8427 0.3807 -0.3807
vn 0.8682 0.3370 -0.3643
vn 0.8000 0.5148 0.3082
vn 0.8191 0.4835 0.3086
vn 0.8446 0.4359 0.3109
vn 0.8695 0.3864 0.3077
vn 0.8936 0.3425 0.2901
vn 0.3549 0.5001 0.7899
vn 0.3577 0.4683 0.8079
vn 0.3634 0.4200 0.8316
vn 0.3637 0.3697 0.8550
vn 0.3494 0.3245 0.8790
vn -0.3308 0.4726 0.8168
vn -0.3297 0.4407 0.8349
vn -0.3297 0.3922 0.8588
vn -0.3241 0.3421 0.8820
vn -0.3045 0.2983 0.9046
vn -0.8120 0.4502 0.3715
vn -0.8285 0.4174 0.3732
vn -0.8499 0.3679 0.3773
vn -0.8709 0.3166 0.3759
vn -0.8927 0.2709 0.3602
vn -0.3936 0.4591 -0.7964
vn -0.3938 0.4269 -0.8140
vn -0.3956 0.3780 -0.8370
vn -0.3918 0.3276 -0.8598
vn -0.3740 0.2833 -0.8831
vn -0.8387 0.4444 -0.3148
vn -0.8553 0.4117 -0.3147
vn -0.8768 0.3621 -0.3163
vn -0.8976 0.3109 -0.3124
vn -0.9181 0.2654 -0.2942
vn 0.3199 -0.8067 0.4969
vn -0.4787 -0.8439 -0.2422
vn -0.4579 -0.8395 0.2927
vn 0.2809 -0.8151 -0.5067
vn -0.2536 -0.8365 -0.4857
vn 0.5450 -0.7993 0.2534
vn -0.2146 -0.8281 0.5179
vn 0.5242 -0.8037 -0.2815
vn 0.2378 -0.9107 0.3377
vn -0.3087 -0.9362 -0.1681
vn -0.2941 -0.9331 0.2072
vn 0.2115 -0.9164 -0.3399
vn -0.1635 -0.9314 -0.3252
vn 0.3830 -0.9059 0.1806
vn -0.1371 -0.9257 0.3524
vn 0.3684 -0.9090 -0.1946
vn 0.1867 -0.9462 0.2644
vn -0.2300 -0.9656 -0.1213
vn -0.2193 -0.9633 0.1549
vn 0.1662 -0.9506 -0.2623
vn -0.1097 -0.9616 -0.2514
vn 0.3070 -0.9422 0.1342
vn -0.0892 -0.9572 0.2752
vn 0.2963 -0.9445 -0.1419
vn 0.1576 -0.9646 0.2112
vn -0.1739 -0.9801 -0.0956
vn -0.1653 -0.9783 0.1252
vn 0.1413 -0.9681 -0.2067
vn -0.0792 -0.9770 -0.1980
vn 0.2523 -0.9615 0.1088
vn -0.0630 -0.9735 0.2199
vn 0.2437 -0.9634 -0.1120
vn 0.1381 -0.9748 0.1751
vn -0.1359 -0.9876 -0.0785
vn -0.1288 -0.9861 0.1053
vn 0.1247 -0.9777 -0.1690
vn -0.0590 -0.9851 -0.1618
vn 0.2150 -0.9723 0.0919
vn -0.0456 -0.9822 0.1823
vn 0.2079 -0.9738 -0.0920
vn 0.1228 -0.9803 0.1547
vn -0.1142 -0.9914 -0.0646
vn -0.1082 -0.9901 0.0898
vn 0.1110 -0.9828 -0.1474
vn -0.0433 -0.9890 -0.1413
vn 0.1936 -0.9780 0.0780
vn -0.0316 -0.9865 0.1607
vn 0.1876 -0.9793 -0.0765
usemtl Material.008
s off
f 105//1 106//1 108//1 107//1
f 107//2 108//2 110//2 109//2
f 109//3 110//3 112//3 111//3
f 111//4 112//4 114//4 113//4
f 113//5 114//5 116//5 115//5
f 115//6 116//6 118//6 117//6
f 108//7 106//7 120//7 118//7 116//7 114//7 112//7 110//7
f 119//8 120//8 106//8 105//8
f 117//9 118//9 120//9 119//9
f 105//10 107//10 109//10 111//10 113//10 115//10 117//10 119//10
usemtl Material.009
f 57//11 2//11 4//11 58//11
f 58//12 4//12 6//12 59//12
f 59//13 6//13 8//13 60//13
f 60//14 8//14 10//14 61//14
f 61//15 10//15 12//15 62//15
f 62//16 12//16 14//16 63//16
f 64//17 16//17 2//17 57//17
f 63//18 14//18 16//18 64//18
f 1//10 3//10 5//10 7//10 9//10 11//10 13//10 15//10
f 4//19 2//19 16//19 14//19 12//19 10//19 8//19 6//19
f 104//20 17//20 26//20 97//20
f 89//21 18//21 25//21 90//21
f 81//22 19//22 24//22 82//22
f 73//23 20//23 23//23 74//23
f 65//24 21//24 22//24 66//24
f 97//25 26//25 31//25 98//25
f 90//26 25//26 30//26 91//26
f 82//27 24//27 29//27 83//27
f 74//28 23//28 28//28 75//28
f 66//29 22//29 27//29 67//29
f 98//30 31//30 36//30 99//30
f 91//31 30//31 35//31 92//31
f 83//32 29//32 34//32 84//32
f 75//33 28//33 33//33 76//33
f 67//34 27//34 32//34 68//34
f 99//35 36//35 41//35 100//35
f 92//36 35//36 40//36 93//36
f 84//37 34//37 39//37 85//37
f 76//38 33//38 38//38 77//38
f 68//39 32//39 37//39 69//39
f 100//40 41//40 46//40 101//40
f 93//41 40//41 45//41 94//41
f 85//42 39//42 44//42 86//42
f 77//43 38//43 43//43 78//43
f 69//44 37//44 42//44 70//44
f 101//45 46//45 51//45 102//45
f 94//46 45//46 50//46 95//46
f 86//47 44//47 49//47 87//47
f 78//48 43//48 48//48 79//48
f 70//49 42//49 47//49 71//49
f 103//50 56//50 17//50 104//50
f 96//51 55//51 18//51 89//51
f 88//52 54//52 19//52 81//52
f 80//53 53//53 20//53 73//53
f 72//54 52//54 21//54 65//54
f 102//55 51//55 56//55 103//55
f 95//56 50//56 55//56 96//56
f 87//57 49//57 54//57 88//57
f 79//58 48//58 53//58 80//58
f 71//59 47//59 52//59 72//59
f 21//60 57//60 58//60 22//60
f 22//61 58//61 59//61 27//61
f 27//62 59//62 60//62 32//62
f 32//63 60//63 61//63 37//63
f 37//64 61//64 62//64 42//64
f 42//65 62//65 63//65 47//65
f 52//66 64//66 57//66 21//66
f 47//67 63//67 64//67 52//67
f 20//68 65//68 66//68 23//68
f 23//69 66//69 67//69 28//69
f 28//70 67//70 68//70 33//70
f 33//71 68//71 69//71 38//71
f 38//72 69//72 70//72 43//72
f 43//73 70//73 71//73 48//73
f 53//74 72//74 65//74 20//74
f 48//75 71//75 72//75 53//75
f 19//76 73//76 74//76 24//76
f 24//77 74//77 75//77 29//77
f 29//78 75//78 76//78 34//78
f 34//79 76//79 77//79 39//79
f 39//80 77//80 78//80 44//80
f 44//81 78//81 79//81 49//81
f 54//82 80//82 73//82 19//82
f 49//83 79//83 80//83 54//83
f 18//84 81//84 82//84 25//84
f 25//85 82//85 83//85 30//85
f 30//86 83//86 84//86 35//86
f 35//87 84//87 85//87 40//87
f 40//88 85//88 86//88 45//88
f 45//89 86//89 87//89 50//89
f 55//90 88//90 81//90 18//90
f 50//91 87//91 88//91 55//91
f 17//92 89//92 90//92 26//92
f 26//93 90//93 91//93 31//93
f 31//94 91//94 92//94 36//94
f 36//95 92//95 93//95 41//95
f 41//96 93//96 94//96 46//96
f 46//97 94//97 95//97 51//97
f 56//98 96//98 89//98 17//98
f 51//99 95//99 96//99 56//99
f 1//100 104//100 97//100 3//100
f 3//101 97//101 98//101 5//101
f 5//102 98//102 99//102 7//102
f 7//103 99//103 100//103 9//103
f 9//104 100//104 101//104 11//104
f 11//105 101//105 102//105 13//105
f 15//106 103//106 104//106 1//106
f 13//107 102//107 103//107 15//107
